# xmcd CD database file
#
# Track frame offsets:
#	150
#	41211
#	105967
#	147649
#	210853
#	271358
#
# Disc length: 3736 seconds
#
# Revision: 0
# Processed by: cddbd v1.5.2PL0 Copyright (c) Steve Scherf et al.
# Submitted via: CDex 1.70beta2
#
DISCID=520e9606
DTITLE=Rick Deckard - Equatorial Moon
DYEAR=2003
DGENRE=New Age
TTITLE0=Night Smile
TTITLE1=Walking by the Sea
TTITLE2=Pale Light
TTITLE3=Equatorial Moon
TTITLE4=Silver Moon Noice
TTITLE5=Endless Waters
EXTD=YEAR: 2003
EXTT0=
EXTT1=
EXTT2=
EXTT3=
EXTT4=
EXTT5=
PLAYORDER=
